<?xml version="1.0" encoding="UTF-8"?>
<svg id="Layer_1" xmlns="http://www.w3.org/2000/svg" version="1.1" viewBox="0 0 50 50">
  <!-- Generator: Adobe Illustrator 30.3.0, SVG Export Plug-In . SVG Version: 2.1.3 Build 182)  -->
  <path d="M47.48,25.07c-1.29,0-2.35.97-2.5,2.24-1.16,9.95-9.68,17.69-19.98,17.69S6.18,37.25,5.02,27.31c-.15-1.27-1.21-2.24-2.5-2.24h0c-1.51,0-2.67,1.31-2.5,2.81,1.44,12.45,12.08,22.13,24.98,22.13s23.54-9.67,24.98-22.13c.17-1.49-.99-2.81-2.5-2.81h0Z"/>
  <path d="M41.22,13.72l-7.89,6.53,2.54,9.92c.33,1.31-1.1,2.34-2.23,1.62l-8.64-5.49-8.64,5.49c-1.13.72-2.56-.32-2.23-1.62l2.54-9.92-7.89-6.53c-1.04-.86-.49-2.53.85-2.62l10.22-.64L23.62.93c.5-1.25,2.26-1.25,2.75,0l3.76,9.52,10.22.64c1.34.09,1.89,1.76.85,2.62h.02Z"/>
</svg>