<?xml version="1.0" encoding="UTF-8"?>
<svg id="Layer_1" xmlns="http://www.w3.org/2000/svg" version="1.1" viewBox="0 0 100 100">
  <!-- Generator: Adobe Illustrator 30.3.0, SVG Export Plug-In . SVG Version: 2.1.3 Build 182)  -->
  <defs>
    <style>
      .st0 {
        isolation: isolate;
        opacity: .15;
      }

      .st1 {
        display: none;
      }
    </style>
  </defs>
  <g id="Layer_11" class="st1">
    <path class="st0" d="M69.3,10.32c-4.03,3.74-7.67,7.68-10.9,11.63-5.29-7.28-11.84-14.66-19.26-21.55C20.09,18.06,6.57,41.1,6.57,54.98c0,24.67,19.44,44.67,43.43,44.67s43.43-20,43.43-44.67c0-10.33-10.08-31.63-24.13-44.67h0ZM70.27,81.45c-5.48,4.11-11.91,7.36-19.27,7.36-18.39,0-33.29-14.27-33.29-34.02,0-9.84,7.99-23.03,20.34-37.85,2.59,1.89,19.61,23.4,19.61,23.4l12.25-13.04c3.88,6.57,7.71,13.7,8.56,15.33,6.38,13.25,4.9,28.35-6.7,37.66l-1.52,1.17h.02Z"/>
  </g>
  <path class="st1" d="M50,10c22.06,0,40,17.94,40,40s-17.94,40-40,40S10,72.06,10,50,27.94,10,50,10h0ZM50,0C22.39,0,0,22.39,0,50s22.39,50,50,50,50-22.39,50-50S77.61,0,50,0h0Z"/>
  <path d="M70.79,15.98c2.35-.12,4.47-.42,6.28-.78l8.05,9.21c-1.81,3.81-2.85,7.45-3.23,11.06-.57,5.39.41,9.97,1.14,13.32l.03.15c.75,3.46,1.25,5.74,1.17,8.41-.07,2.52-.68,5.84-3.05,10.59-5.11,10.24-17.17,12.4-26.55,17.1-1.52.76-3.08,1.62-4.63,2.64-1.55-1.02-3.11-1.89-4.63-2.64-9.38-4.7-21.44-6.86-26.55-17.1-2.37-4.74-2.98-8.07-3.05-10.59-.07-2.68.42-4.95,1.17-8.41l.03-.15c.73-3.35,1.71-7.93,1.14-13.32-.38-3.6-1.42-7.24-3.23-11.06l8.05-9.21c1.81.36,3.93.66,6.28.78,5.88.29,13.36-.58,20.79-4.73,7.42,4.15,14.91,5.02,20.79,4.73ZM92.21,47.32c-1.5-6.88-2.91-13.33,4.24-24.07l-16.26-18.6s-16.26,6.98-30.2-4.65c-13.94,11.63-30.2,4.65-30.2,4.65L3.54,23.26c7.15,10.74,5.74,17.19,4.24,24.06-1.42,6.53-2.93,13.44,2.73,24.77,7.33,14.67,21.87,16.33,32.25,22.07,2.79,1.54,5.27,3.38,7.24,5.84,1.97-2.46,4.45-4.29,7.24-5.84,10.38-5.74,24.93-7.4,32.25-22.07,5.66-11.33,4.15-18.24,2.73-24.77ZM61.05,52.43l2.61,15.22-13.65-7.19-13.65,7.19,2.61-15.22-11.05-10.78,15.26-2.22,6.83-13.85,6.83,13.85,15.26,2.22-11.05,10.78Z"/>
</svg>